Coordinates
version=1
nRows=7
nColumns=40
inDegrees=yes

Units are S.I. units (second, meters, Newtons, ...)
Angles are in degrees.

endheader
time	pelvis_tilt	pelvis_list	pelvis_rotation	pelvis_tx	pelvis_ty	pelvis_tz	hip_flexion_r	hip_adduction_r	hip_rotation_r	knee_angle_r	knee_angle_r_beta	ankle_angle_r	subtalar_angle_r	mtp_angle_r	hip_flexion_l	hip_adduction_l	hip_rotation_l	knee_angle_l	knee_angle_l_beta	ankle_angle_l	subtalar_angle_l	mtp_angle_l	lumbar_extension	lumbar_bending	lumbar_rotation	arm_flex_r	arm_add_r	arm_rot_r	elbow_flex_r	pro_sup_r	wrist_flex_r	wrist_dev_r	arm_flex_l	arm_add_l	arm_rot_l	elbow_flex_l	pro_sup_l	wrist_flex_l	wrist_dev_l
     30.04000000	     -1.93831490	      4.29007794	      3.94133134	      1.18739858	      0.96544840	     -0.53957402	     13.42749248	     -8.24521152	      1.50358631	     64.36589238	     64.36589238	      8.57575083	      0.00000000	      0.00000000	     18.88932249	      8.95909409	      7.06177312	     41.31745215	     41.31745215	     20.14496134	      0.00000000	      0.00000000	    -19.83391002	     -7.79246361	      1.69308084	    -15.00000005	    -19.99999993	    -15.00000004	    119.99999992	     89.99827284	      0.00000000	      0.00000000	    -14.99999991	    -19.99999953	    -14.99999998	    119.99999993	     89.99827282	      0.00000000	      0.00000000
     30.05000000	     -1.87628182	      3.91437784	      3.32386931	      1.18637184	      0.96642394	     -0.53890001	     16.00440327	     -7.73457507	      2.18036289	     63.96134070	     63.96134070	      9.29058804	      0.00000000	      0.00000000	     16.60560360	      8.15163927	      6.41760840	     40.39945258	     40.39945258	     21.31618596	      0.00000000	      0.00000000	    -19.91897834	     -7.30016445	      1.40138214	    -15.00000005	    -19.99999993	    -15.00000004	    119.99999992	     89.99827284	      0.00000000	      0.00000000	    -14.99999991	    -19.99999953	    -14.99999998	    119.99999993	     89.99827282	      0.00000000	      0.00000000
     30.06000000	     -1.94540597	      3.47652741	      2.71586449	      1.18548330	      0.96804345	     -0.53841651	     18.54820240	     -7.16857213	      2.64679116	     62.95939442	     62.95939442	     10.48418577	      0.00000000	      0.00000000	     14.36633444	      7.42102970	      6.01261221	     39.30571768	     39.30571768	     22.10145261	      0.00000000	      0.00000000	    -19.78623327	     -6.61561568	      1.05908685	    -15.00000005	    -19.99999993	    -15.00000004	    119.99999992	     89.99827284	      0.00000000	      0.00000000	    -14.99999991	    -19.99999953	    -14.99999998	    119.99999993	     89.99827282	      0.00000000	      0.00000000
     30.07000000	     -2.07554862	      2.95008000	      1.96632629	      1.18525370	      0.97025497	     -0.53772892	     20.84113434	     -6.41287602	      3.08499441	     61.17738154	     61.17738154	     11.41376293	      0.00000000	      0.00000000	     12.02886968	      6.63537506	      5.56439204	     37.93301525	     37.93301525	     22.43711581	      0.00000000	      0.00000000	    -19.47250203	     -5.84540329	      0.71910338	    -15.00000005	    -19.99999993	    -15.00000004	    119.99999992	     89.99827284	      0.00000000	      0.00000000	    -14.99999991	    -19.99999953	    -14.99999998	    119.99999993	     89.99827282	      0.00000000	      0.00000000
     30.08000000	     -2.86370571	      2.45964701	      1.28826855	      1.18490583	      0.97191463	     -0.53767791	     23.68806570	     -5.76216496	      3.37180795	     58.91675372	     58.91675372	     11.48342928	      0.00000000	      0.00000000	     10.29269051	      6.06531635	      5.33672404	     36.24923738	     36.24923738	     22.22883409	      0.00000000	      0.00000000	    -18.36144227	     -5.02131356	      0.19072892	    -15.00000005	    -19.99999993	    -15.00000004	    119.99999992	     89.99827284	      0.00000000	      0.00000000	    -14.99999991	    -19.99999953	    -14.99999998	    119.99999993	     89.99827282	      0.00000000	      0.00000000
     30.09000000	     -2.83748716	      1.46061061	      0.68372797	      1.18602488	      0.97570282	     -0.53762733	     24.95739096	     -4.56758736	      3.11810538	     55.55957138	     55.55957138	     12.14659497	      0.00000000	      0.00000000	      7.36955713	      4.85911983	      4.86128314	     34.11526988	     34.11526988	     22.00696887	      0.00000000	      0.00000000	    -18.08487854	     -3.50607389	     -0.28409210	    -15.00000005	    -19.99999993	    -15.00000004	    119.99999992	     89.99827284	      0.00000000	      0.00000000	    -14.99999991	    -19.99999953	    -14.99999998	    119.99999993	     89.99827282	      0.00000000	      0.00000000
     30.10000000	     -3.22309910	      0.75088617	     -0.24089724	      1.18667301	      0.97939124	     -0.53704546	     26.60108858	     -3.48650555	      3.23005202	     51.80870852	     51.80870852	     11.95873976	      0.00000000	      0.00000000	      4.73857564	      3.95042861	      4.12547725	     31.55178872	     31.55178872	     20.69698388	      0.00000000	      0.00000000	    -17.41462189	     -2.40008192	     -0.68910316	    -15.00000005	    -19.99999993	    -15.00000004	    119.99999992	     89.99827284	      0.00000000	      0.00000000	    -14.99999991	    -19.99999953	    -14.99999998	    119.99999993	     89.99827282	      0.00000000	      0.00000000
